<svg xmlns="http://www.w3.org/2000/svg" xml:space="preserve" id="_x32_" version="1.1" viewBox="0 0 512 512"><path d="M438.024 210.133c0 7.488 6.08 13.551 13.551 13.551 7.488 0 13.569-6.063 13.569-13.551 0-7.479-6.081-13.552-13.569-13.552-7.471 0-13.551 6.073-13.551 13.552zM400.097 376.503c-5.994 0-10.842 4.856-10.842 10.85 0 5.986 4.848 10.832 10.842 10.832 5.994 0 10.841-4.847 10.841-10.832 0-5.994-4.847-10.85-10.841-10.85zM382.758 415.376c-12.284 0-22.238 9.956-22.238 22.238 0 12.274 9.955 22.229 22.238 22.229s22.238-9.955 22.238-22.229c.001-12.282-9.955-22.238-22.238-22.238z" class="st0"/><circle cx="137.251" cy="426.904" r="16.8" class="st0"/><path d="M94.425 359.164c-4.778 0-8.669 3.874-8.669 8.678 0 4.778 3.892 8.66 8.669 8.66 4.796 0 8.67-3.883 8.67-8.66a8.663 8.663 0 0 0-8.67-8.678zM54.865 151.063c6.29 0 11.38-5.1 11.38-11.389 0-6.281-5.09-11.38-11.38-11.38-6.289 0-11.38 5.099-11.38 11.38 0 6.289 5.091 11.389 11.38 11.389zM165.97 97.952c8.374 0 15.166-6.793 15.166-15.185 0-8.365-6.792-15.158-15.166-15.158s-15.168 6.794-15.168 15.158c0 8.391 6.794 15.185 15.168 15.185z" class="st0"/><path d="M450.775 300.632c-47.586-16.887-56.968-10.485-80.214-32.515-5.56-5.255-5.438-22.49 25.47-18.425 15.497 2.042 26.008-6.506 26.008-18.702 0-8.131-9.799-19.433-24.393-13.821-21.126 8.131-34.834-1.094-37.388-11.38-3.25-13.004.434-27.832 54.814-54.996 66.646-33.332 28.423-93.983-23.924-36.859-23.194 25.296-34.14 35.764-49.584 43.895-13.864 7.288-30.49-.27-17.895-17.069 4.882-6.507 13.17-11.527 15.445-19.511 3.249-11.38-6.324-21.952-14.628-21.952s-18.694 4.874-21.943 17.07c-4.882 22.359-17.322 21.24-23.194 14.785-11.241-12.318-7.193-26.686-5.264-48.924 2.276-26.121 17.738-86.443-29.709-81.995-22.88 2.146-29.639 23.715-22.238 62.267 9.208 47.856-4.725 81.257-19.597 88.007-17.878 8.13-26.946 5.046-65.029-21.126-20.24-13.926-42.584-1.703-47.152 14.628-4.031 14.385 7.332 31.768 24.393 37.396 26.286 8.678 37.944 10.693 50.14 17.33 11.918 6.507 13.412 22.282 1.511 36.554-11.918 14.282-42.705 2.468-88.224-.782-78.685-5.611-60.999 81.43 12.996 55.831 42.27-14.637 60.147-11.389 67.479-2.441 10.112 12.344 3.162 29.031-16.54 40.915-62.858 37.944 7.61 85.078 33.618 32.515 10.876-21.961 23.385-28.71 35.756-23.846 10.094 3.979 23.02 39.204 8.409 86.72C206.885 466.473 207.771 512 238.33 512c28.563 0 33.028-42.539 28.164-88.875-1.808-17.339-.47-44.207 13.012-50.948 10.842-5.421 27.781-11.458 39.283 12.457 10.58 21.951 33.34 18.693 42.287 6.506 6.532-8.921 9.851-28.71-16.157-38.969-30.995-12.249-19.615-45.58 3.961-42.323 26.026 3.588 43.868 13.17 74.794 39.569 43.155 36.816 98.56-23.428 27.101-48.785z" class="st0"/></svg>