<svg xmlns="http://www.w3.org/2000/svg" fill="none" viewBox="0 0 25 25"><path fill="#121923" d="m4.562 13.5-.42.43.43.419.42-.43-.43-.419Zm5.362 2.424 6-6-.848-.848-6 6 .848.848Zm-.848-6 6 6 .848-.848-6-6-.848.848ZM19.9 12.5a7.4 7.4 0 0 1-7.4 7.4v1.2a8.6 8.6 0 0 0 8.6-8.6h-1.2Zm-14.8 0a7.4 7.4 0 0 1 7.4-7.4V3.9a8.6 8.6 0 0 0-8.6 8.6h1.2Zm7.4-7.4a7.4 7.4 0 0 1 7.4 7.4h1.2a8.6 8.6 0 0 0-8.6-8.6v1.2Zm-7.343 8.326A7.482 7.482 0 0 1 5.1 12.5H3.9c0 .364.023.722.067 1.074l1.19-.148ZM12.5 19.9a7.392 7.392 0 0 1-6.12-3.238l-.991.676A8.592 8.592 0 0 0 12.5 21.1v-1.2Zm-7.509-5.981 2.439-2.5-.86-.838-2.438 2.5.86.838Zm-.01-.848-2.562-2.5-.838.858 2.562 2.5.838-.858Z"/></svg>